<svg version="1.1" id="Layer_1" xmlns="http://www.w3.org/2000/svg" xmlns:xlink="http://www.w3.org/1999/xlink" x="0px" y="0px"
	 viewBox="0 0 192 192" style="enable-background:new 0 0 192 192;" xml:space="preserve">
<style type="text/css">
	.st0{fill:#363C44;}
</style>
<g>
	<path class="st0" d="M96,0.1c27.3,0,54.5,0.1,81.8-0.1c7.3,0,13.1,5.2,14.1,11.5c0.1,0.7,0.2,1.4,0.2,2.1c0,54.8,0,109.7,0,164.5
		c0,7.3-5.8,13.3-13,13.6c-0.5,0-1,0-1.4,0c-54.4,0-108.8,0-163.1,0c-6.8,0-12-3.7-13.8-9.8c-0.4-1.3-0.6-2.7-0.6-4
		C0,123.3,0,68.7,0,14C0,6.2,5.9,0.2,13.7,0.1c6.6-0.1,13.2,0,19.8,0C54.3,0.1,75.1,0.1,96,0.1z M102.4,84.3c0-3.8-0.1-7.1,0-10.4
		c0.1-1.6-0.4-2.2-2.1-2.2c-7.8,0.1-15.7,0.1-23.5,0c-1.9,0-2.3,0.6-2.3,2.3c0.1,29.2,0.1,58.3,0,87.5c0,1.8,0.5,2.4,2.3,2.4
		c8.1-0.1,16.3-0.1,24.4,0c1.8,0,2.3-0.5,2.3-2.3c-0.1-14.7-0.1-29.3,0-44c0-3,0.2-6.1,0.7-9.1c1.1-6.2,3.9-11.2,10.6-12.9
		c2-0.5,4.2-0.6,6.4-0.6c6.6,0.1,11,3.3,12.4,9.7c0.9,3.7,1.2,7.7,1.2,11.5c0.1,15.1,0.1,30.2,0,45.3c0,1.8,0.4,2.4,2.3,2.4
		c8.1-0.1,16.3-0.1,24.4,0c1.7,0,2.2-0.6,2.2-2.3c-0.1-16.2-0.1-32.4,0-48.7c0-6.6-0.3-13.3-1.8-19.8c-2.1-8.9-6.2-16.4-14.9-20.4
		c-8.7-3.9-17.8-4.7-27-2.3C112.6,72.7,106.8,77.3,102.4,84.3z M57.1,117.7c0-14.6,0-29.2,0-43.8c0-1.6-0.4-2.2-2.1-2.1
		c-8.3,0.1-16.5,0.1-24.8,0c-1.6,0-2.1,0.4-2.1,2.1c0.1,29.3,0.1,58.7,0,88c0,1.8,0.6,2.1,2.2,2.1c8.1-0.1,16.3,0,24.4,0
		c2.4,0,2.4,0,2.4-2.4C57.1,146.9,57.1,132.3,57.1,117.7z M42.6,59.5c9.3,0,16.6-7.4,16.7-16.6c0-9.3-7.4-16.7-16.7-16.7
		C33.3,26.2,26,33.6,26,43C26,52.2,33.4,59.5,42.6,59.5z"/>
</g>
</svg>
